# xmcd
#
# Track frame offsets:
#	150
#	19546
#	37319
#	54513
#	79403
#	97600
#	116329
#	129477
#	147352
#	161956
#
# Disc length: 2435 seconds
#
# Revision: 0
# Processed by: cddbd v1.5.1PL0 Copyright (c) Steve Scherf et al.
# Submitted via: MusicManager 7.2.0.0 
#
DISCID=8109810a
DTITLE=Various Artist - 10 onvergetelijke lovesongs
DYEAR=2003
DGENRE=blues
TTITLE0=Clouseau - Heb ik ooit gezegd
TTITLE1=Isablle Adam - Somewhere in my heart
TTITLE2=Soulsister - Like a mountain
TTITLE3=Spandau Ballet - True
TTITLE4=Mama's Jasje - Ik mis je zo
TTITLE5=Gloria Gaynor - Be soft with me tonight
TTITLE6=Dolly Parton - Will always love you
TTITLE7=Marc Almond - Something's gotten hold on my heart
TTITLE8=Flikken "Soulbob" - Heaven can wait
TTITLE9=Volumia - Afscheid
EXTD=
EXTT0=
EXTT1=
EXTT2=
EXTT3=
EXTT4=
EXTT5=
EXTT6=
EXTT7=
EXTT8=
EXTT9=
PLAYORDER=
